<?xml version="1.0" standalone="no"?>
<!DOCTYPE svg PUBLIC "-//W3C//DTD SVG 20010904//EN"
 "http://www.w3.org/TR/2001/REC-SVG-20010904/DTD/svg10.dtd">
<svg version="1.0" xmlns="http://www.w3.org/2000/svg"
 width="612.000000pt" height="406.000000pt" viewBox="0 0 612.000000 406.000000"
 preserveAspectRatio="xMidYMid meet">

<g transform="translate(0.000000,406.000000) scale(0.100000,-0.100000)"
fill="#10B981" stroke="none">
<path d="M4958 3573 c-40 -68 -76 -150 -69 -160 3 -6 26 -23 51 -38 25 -16 69
-46 98 -67 51 -38 54 -39 68 -21 29 38 86 163 81 177 -8 21 -182 146 -202 146
-3 0 -15 -17 -27 -37z"/>
<path d="M1513 3377 c-15 -18 -31 -93 -38 -169 -5 -66 -4 -71 51 -195 161
-364 254 -681 254 -869 0 -95 -1 -97 -92 -210 -157 -196 -426 -392 -668 -488
-141 -57 -207 -71 -325 -71 -90 0 -104 3 -138 25 -73 49 -101 156 -77 294 9
56 53 236 87 359 8 27 -15 20 -30 -10 -61 -123 -127 -416 -127 -568 0 -87 25
-193 57 -242 30 -46 90 -89 148 -104 53 -15 196 -6 265 16 187 59 369 162 565
320 110 89 248 231 296 305 33 50 81 164 92 215 3 18 5 16 15 -8 7 -16 12 -41
12 -56 0 -33 34 -217 54 -289 30 -110 84 -189 158 -232 102 -58 248 -50 398
22 76 36 97 53 205 164 116 120 145 142 145 108 0 -8 7 -46 16 -83 17 -79 64
-142 121 -166 47 -20 162 -19 226 2 116 37 218 117 342 266 52 63 76 66 87 12
29 -139 32 -147 70 -189 62 -71 149 -91 266 -61 145 37 299 149 385 279 24 36
26 37 36 18 6 -12 11 -30 11 -41 0 -36 40 -128 68 -156 94 -94 259 -86 359 17
18 18 54 75 81 127 33 61 52 89 57 80 5 -7 21 -39 37 -71 63 -126 193 -207
284 -178 95 30 170 116 216 247 20 58 23 87 23 198 -1 153 -7 183 -106 476
-38 113 -69 213 -69 222 0 23 22 21 64 -3 47 -28 54 -11 20 48 -46 80 -173
268 -194 287 -19 18 -20 17 -41 -29 -11 -26 -26 -70 -34 -98 -11 -46 -11 -56
5 -93 10 -22 22 -74 28 -115 20 -137 61 -303 91 -375 5 -11 17 -42 27 -70 9
-27 40 -97 67 -155 86 -183 87 -196 24 -244 -69 -53 -204 -53 -274 0 -52 40
-73 90 -73 179 0 66 -2 76 -17 73 -9 -2 -36 -36 -60 -75 -52 -85 -132 -176
-185 -209 -44 -28 -114 -54 -146 -54 -45 0 -110 40 -143 88 -27 42 -30 53 -25
102 2 30 8 67 12 83 12 52 -22 29 -127 -83 -110 -118 -160 -156 -260 -196 -51
-21 -82 -26 -154 -26 -101 -1 -138 11 -198 64 -48 42 -60 89 -46 176 6 35 9
66 6 69 -17 16 -66 -19 -192 -138 -110 -104 -153 -138 -204 -162 -164 -74
-287 -74 -352 -1 -32 36 -50 111 -43 180 6 60 6 64 -14 64 -24 0 -45 -17 -187
-155 -109 -105 -183 -149 -310 -185 -96 -27 -212 -27 -266 0 -63 32 -113 126
-134 250 -42 250 -56 333 -65 375 -5 28 -17 91 -26 140 -16 87 -68 307 -97
410 -13 44 -26 83 -80 230 -29 82 -168 322 -196 339 -5 3 -13 0 -18 -7z"/>
<path d="M4260 2868 l-44 -91 24 -18 c112 -81 183 -129 189 -129 12 0 91 154
91 177 0 11 -12 31 -27 44 -45 42 -151 109 -171 109 -13 0 -31 -26 -62 -92z"/>
<path d="M4490 2584 c-19 -36 -38 -68 -41 -70 -4 -2 -26 11 -50 30 -24 18 -68
48 -97 66 -64 39 -61 41 -117 -79 -39 -82 -40 -83 -20 -98 160 -114 189 -132
199 -123 7 5 25 36 41 70 16 33 35 60 42 60 7 0 54 -28 103 -62 78 -53 92 -60
104 -47 29 29 87 149 84 171 -2 16 -31 42 -96 86 -51 34 -99 62 -105 62 -7 0
-28 -30 -47 -66z"/>
<path d="M3390 963 c-38 -103 -74 -188 -87 -201 -13 -13 -23 -25 -23 -27 0 -3
25 -5 55 -5 30 0 55 5 55 10 0 6 -9 10 -20 10 -23 0 -24 1 -8 52 14 47 36 58
113 58 51 0 54 -1 64 -31 15 -44 14 -69 -4 -75 -34 -13 -11 -24 50 -24 37 0
65 4 65 10 0 6 -8 10 -19 10 -13 0 -21 10 -25 33 -10 48 -131 350 -142 354 -6
2 -39 -77 -74 -174z m99 -1 l30 -82 -64 0 c-36 0 -65 2 -65 3 0 5 35 104 49
141 6 16 13 27 16 25 2 -3 17 -42 34 -87z"/>
<path d="M3731 1126 c-28 -16 -50 -52 -51 -84 0 -45 28 -78 97 -115 37 -20 75
-43 84 -49 63 -50 34 -128 -48 -128 -55 0 -89 22 -103 66 -17 52 -30 41 -30
-26 0 -47 3 -60 15 -60 8 0 15 4 15 9 0 5 17 3 38 -5 48 -17 85 -17 125 0 45
19 69 49 70 90 1 50 -28 85 -105 126 -84 45 -108 67 -108 99 1 74 92 93 145
29 14 -16 25 -38 25 -49 0 -10 5 -19 10 -19 6 0 10 28 10 65 0 58 -12 85 -22
53 -4 -10 -10 -10 -32 0 -35 16 -105 15 -135 -2z"/>
<path d="M2880 1120 c0 -5 9 -10 20 -10 19 0 20 -7 20 -165 0 -152 -2 -167
-20 -185 -11 -11 -20 -22 -20 -25 0 -3 25 -5 55 -5 54 0 77 15 33 22 -21 3
-22 8 -26 151 -2 81 -2 147 1 147 3 0 60 -74 128 -165 68 -91 129 -165 136
-165 10 0 13 41 13 179 0 187 3 211 26 211 8 0 14 5 14 10 0 6 -22 10 -50 10
-27 0 -50 -4 -50 -10 0 -5 8 -10 18 -10 16 0 18 -10 14 -127 -1 -71 -4 -137
-5 -147 -1 -13 -41 32 -120 137 -112 150 -119 157 -152 157 -19 0 -35 -4 -35
-10z"/>
<path d="M4000 1120 c0 -5 9 -10 20 -10 19 0 20 -7 20 -170 0 -159 -1 -171
-20 -182 -34 -21 -23 -28 45 -28 37 0 65 4 65 10 0 6 -9 10 -20 10 -18 0 -20
7 -20 85 l0 85 105 0 105 0 0 -70 c0 -57 -4 -74 -20 -90 -11 -11 -20 -22 -20
-25 0 -3 29 -5 65 -5 37 0 65 4 65 10 0 6 -9 10 -20 10 -19 0 -20 7 -20 174 0
169 1 174 23 189 21 15 19 16 -45 16 -39 1 -68 -3 -68 -9 0 -5 9 -10 20 -10
18 0 20 -7 20 -80 l0 -80 -105 0 -105 0 0 64 c0 73 6 96 26 96 8 0 14 5 14 10
0 6 -28 10 -65 10 -37 0 -65 -4 -65 -10z"/>
<path d="M4450 1120 c0 -5 9 -10 20 -10 19 0 20 -7 20 -170 0 -159 -1 -171
-20 -182 -11 -7 -20 -16 -20 -20 0 -5 68 -8 150 -8 l150 0 0 55 c0 30 -4 55
-10 55 -5 0 -10 -9 -10 -19 0 -10 -8 -29 -18 -41 -15 -19 -31 -24 -95 -28
l-77 -5 0 92 0 92 48 -3 c38 -2 49 -7 57 -25 17 -38 25 -26 25 37 0 33 -4 60
-10 60 -5 0 -10 -11 -10 -25 0 -24 -3 -25 -55 -25 l-55 0 0 68 c0 40 5 73 12
80 7 7 36 12 65 12 58 0 93 -23 93 -60 0 -11 5 -20 10 -20 6 0 10 23 10 50 l0
50 -140 0 c-87 0 -140 -4 -140 -10z"/>
<path d="M4810 1120 c0 -5 9 -10 20 -10 19 0 20 -7 20 -170 0 -159 -1 -171
-20 -182 -11 -7 -20 -16 -20 -20 0 -5 68 -8 150 -8 l150 0 0 55 c0 60 -14 74
-25 24 -9 -39 -53 -59 -130 -59 l-55 0 0 91 0 90 48 -3 c38 -2 49 -7 57 -25
17 -38 25 -26 25 37 0 48 -3 60 -16 60 -12 0 -15 -6 -10 -25 6 -24 5 -25 -49
-25 l-55 0 0 68 c0 40 5 73 12 80 7 7 36 12 65 12 58 0 93 -23 93 -60 0 -11 5
-20 10 -20 6 0 10 23 10 50 l0 50 -140 0 c-87 0 -140 -4 -140 -10z"/>
<path d="M5170 1120 c0 -5 9 -10 20 -10 19 0 20 -7 20 -165 0 -152 -2 -167
-20 -185 -11 -11 -20 -22 -20 -25 0 -12 191 -4 231 10 87 31 132 96 132 190 0
94 -43 154 -132 184 -42 14 -231 15 -231 1z m237 -36 c47 -35 64 -68 70 -132
10 -112 -51 -188 -161 -199 l-56 -6 0 175 c0 96 3 178 8 182 13 15 112 0 139
-20z"/>
<path d="M2398 1088 c-8 -13 -24 -44 -36 -70 -23 -51 -32 -57 -51 -34 -15 18
-164 116 -177 116 -10 0 -110 -188 -103 -193 54 -44 204 -137 214 -133 8 3 28
33 46 68 17 35 33 65 35 67 2 2 49 -27 105 -65 115 -79 105 -80 159 26 44 87
45 96 15 122 -41 35 -167 118 -181 118 -6 0 -18 -10 -26 -22z"/>
</g>
</svg>